<?xml version="1.0" encoding="UTF-8" standalone="yes"?>
<!DOCTYPE svg PUBLIC "-//W3C//DTD SVG 1.1//EN" "http://www.w3.org/Graphics/SVG/1.1/DTD/svg11.dtd">
<svg xmlns="http://www.w3.org/2000/svg" xmlns:xlink="http://www.w3.org/1999/xlink" version="1.1" preserveAspectRatio="xMidYMid meet" viewBox="0 0 640 640" width="640" height="640" style="zoom: 1;"><defs><path d="M187.61 178.67C173.72 173.61 159.09 170.89 144.32 170.61C79.1 170.76 21.91 214.18 4.25 276.95C2.97 280.33 4.67 284.1 8.04 285.38C11.42 286.66 15.19 284.96 16.47 281.59C16.61 281.22 16.71 280.84 16.79 280.45C32.85 223.28 84.93 183.73 144.32 183.6C159.96 183.99 175.41 187.23 189.89 193.17C189.92 193.17 190.1 193.17 190.42 193.17L190.88 193.17L193.08 193.17L194.07 193.17L195.36 192.64L196.27 191.96C196.82 191.41 197.12 191.11 197.18 191.05C197.53 190.46 197.89 189.88 198.24 189.3C198.24 189.3 198.24 189.3 198.24 188.84C198.24 188.84 198.24 188.84 198.24 188.39C222.32 71.33 336.74 -4.05 453.8 20.03C570.86 44.11 646.24 158.52 622.16 275.59C601.5 376.04 513.17 448.19 410.61 448.38C407.03 448.77 404.44 451.99 404.82 455.58C405.15 458.63 407.56 461.04 410.61 461.37C537.32 461.37 640.04 358.66 640.04 231.95C640.04 105.24 537.32 2.53 410.61 2.53C304.58 2.87 212.47 75.59 187.61 178.67Z" id="azyvgVK3l"></path><path d="M324.63 223.94C318.82 223.92 313.04 224.74 307.47 226.37C304.13 227.73 302.53 231.55 303.9 234.89C305.08 237.77 308.13 239.42 311.19 238.82C336.48 231.46 362.96 246.01 370.31 271.3C377.67 296.6 363.13 323.07 337.84 330.43C333.57 331.67 329.15 332.31 324.71 332.32C292.89 332.32 38.35 332.32 6.53 332.32C2.95 332.71 0.35 335.93 0.74 339.52C1.07 342.57 3.48 344.98 6.53 345.31C38.34 345.31 292.82 345.31 324.63 345.31C358.19 345.31 385.4 318.11 385.4 284.55C385.4 250.99 358.19 223.78 324.63 223.78C324.63 223.81 324.63 223.91 324.63 223.94Z" id="eacGfPa8K"></path><path d="M323.72 439.34C198.44 439.34 128.84 439.34 114.92 439.34C111.33 438.96 108.11 441.55 107.72 445.14C107.33 448.72 109.93 451.94 113.51 452.33C113.98 452.38 114.45 452.38 114.92 452.33C135.8 452.33 302.84 452.33 323.72 452.33C336.3 451.86 346.87 461.68 347.35 474.25C347.82 486.83 338 497.4 325.43 497.87C321.43 498.02 317.46 497.12 313.92 495.25C310.51 494.07 306.79 495.88 305.62 499.29C304.63 502.16 305.74 505.33 308.3 506.95C326.01 515.53 347.32 508.13 355.9 490.43C364.48 472.73 357.09 451.42 339.38 442.84C334.43 440.44 328.99 439.22 323.49 439.27C323.52 439.28 323.6 439.3 323.72 439.34Z" id="a2c9usDkqO"></path><path d="M323.72 385.49C293.87 385.49 55.07 385.49 25.22 385.49C21.63 385.88 19.04 389.1 19.43 392.69C19.76 395.74 22.17 398.15 25.22 398.48C55.07 398.48 293.87 398.48 323.72 398.48C327.3 398.48 330.21 395.6 330.25 392.02C330.25 388.42 327.33 385.49 323.72 385.49Z" id="c5jz2OKKv5"></path></defs><g><g><g><use xlink:href="#azyvgVK3l" opacity="1" fill="#0194fb" fill-opacity="1"></use><g><use xlink:href="#azyvgVK3l" opacity="1" fill-opacity="0" stroke="#000000" stroke-width="1" stroke-opacity="0"></use></g></g><g><use xlink:href="#eacGfPa8K" opacity="1" fill="#0194fb" fill-opacity="1"></use><g><use xlink:href="#eacGfPa8K" opacity="1" fill-opacity="0" stroke="#000000" stroke-width="1" stroke-opacity="0"></use></g></g><g><use xlink:href="#a2c9usDkqO" opacity="1" fill="#0194fb" fill-opacity="1"></use><g><use xlink:href="#a2c9usDkqO" opacity="1" fill-opacity="0" stroke="#000000" stroke-width="1" stroke-opacity="0"></use></g></g><g><use xlink:href="#c5jz2OKKv5" opacity="1" fill="#0194fb" fill-opacity="1"></use><g><use xlink:href="#c5jz2OKKv5" opacity="1" fill-opacity="0" stroke="#000000" stroke-width="1" stroke-opacity="0"></use></g></g></g></g></svg>