<?xml version="1.0" standalone="yes"?><svg xmlns="http://www.w3.org/2000/svg" data-name="Layer 1" viewBox="0 0 84.4 100.64999999999999" x="0px" y="0px" style="zoom: 1;"><title>Untitled-3</title><path d="M62,9.67A30.28,30.28,0,0,0,32.64,32.85a17.6,17.6,0,0,0-5.7-1.06A19.14,19.14,0,0,0,24,69.85h.13a.86.86,0,0,0,.13-1.7A17.43,17.43,0,0,1,26.94,33.5a16.91,16.91,0,0,1,6,1.26H33l.06,0h.28l.15,0,.15-.06.13-.1.11-.11a.83.83,0,0,0,.09-.15.8.8,0,0,0,.05-.09s0,0,0-.06,0,0,0-.06A28.49,28.49,0,1,1,73.3,66,.86.86,0,1,0,74,67.6,30.21,30.21,0,0,0,62,9.67Z" transform="translate(-7.8 -9.67)"></path><path d="M36.07,63.15a.85.85,0,0,0-1.17.33l-5.65,10a.86.86,0,0,0,1.49.84l5.65-10A.86.86,0,0,0,36.07,63.15Z" transform="translate(-7.8 -9.67)"></path><path d="M48.06,63.15a.85.85,0,0,0-1.17.33l-5.65,10a.86.86,0,0,0,1.49.84l5.65-10A.86.86,0,0,0,48.06,63.15Z" transform="translate(-7.8 -9.67)"></path><path d="M58.35,63.15a.85.85,0,0,0-1.17.33l-5.65,10a.86.86,0,0,0,1.49.84l5.65-10A.86.86,0,0,0,58.35,63.15Z" transform="translate(-7.8 -9.67)"></path><path d="M70.34,63.15a.85.85,0,0,0-1.17.33l-5.65,10a.86.86,0,0,0,1.49.84l5.65-10A.86.86,0,0,0,70.34,63.15Z" transform="translate(-7.8 -9.67)"></path><path d="M56.63,78.57a.86.86,0,0,0-1.17.33l-5.65,10a.86.86,0,0,0,1.49.84l5.65-10A.86.86,0,0,0,56.63,78.57Z" transform="translate(-7.8 -9.67)"></path><path d="M46.35,78.57a.86.86,0,0,0-1.17.33l-5.65,10a.86.86,0,0,0,1.49.84l5.65-10A.86.86,0,0,0,46.35,78.57Z" transform="translate(-7.8 -9.67)"></path><path d="M34.35,78.57a.86.86,0,0,0-1.17.33l-5.65,10a.86.86,0,0,0,1.49.84l5.65-10A.86.86,0,0,0,34.35,78.57Z" transform="translate(-7.8 -9.67)"></path></svg>