<?xml version="1.0" standalone="yes"?><svg xmlns="http://www.w3.org/2000/svg" data-name="Layer 1" viewBox="0 0 84.26 83.575" x="0px" y="0px" style="zoom: 0.5;"><title>Untitled-7</title><path d="M61.93,16.5A30.28,30.28,0,0,0,32.57,39.68a17.6,17.6,0,0,0-5.7-1.06,19.2,19.2,0,0,0-18.44,14,.86.86,0,1,0,1.65.46A17.48,17.48,0,0,1,26.87,40.33a16.92,16.92,0,0,1,6,1.26h.07l.06,0h.29l.13,0,.17-.07.12-.09.12-.12a711.12,711.12,0,0,1,.14-.23s0,0,0-.06,0,0,0-.06A28.49,28.49,0,1,1,61.93,75.19a.86.86,0,0,0,0,1.71,30.2,30.2,0,0,0,0-60.41Z" transform="translate(-7.87 -16.5)"></path><path d="M50.61,45.64a8,8,0,0,0-2.26.32.86.86,0,0,0,.49,1.64,6.28,6.28,0,1,1,1.78,12.31H8.73a.86.86,0,0,0,0,1.71H50.61a8,8,0,0,0,0-16Z" transform="translate(-7.87 -16.5)"></path><path d="M50.49,74H23a.86.86,0,1,0,0,1.71H50.49a3,3,0,1,1-1.29,5.65.86.86,0,0,0-.74,1.54,4.69,4.69,0,1,0,2-8.91Z" transform="translate(-7.87 -16.5)"></path><path d="M51.35,67.77a.86.86,0,0,0-.86-.86H11.19a.86.86,0,0,0,0,1.71h39.3A.86.86,0,0,0,51.35,67.77Z" transform="translate(-7.87 -16.5)"></path></svg>