<?xml version="1.0" standalone="yes"?><svg xmlns="http://www.w3.org/2000/svg" data-name="Layer 1" viewBox="0 0 84.4 75.51249999999999" x="0px" y="0px" style="zoom: 1;" visibility="visible"><title visibility="visible">Untitled-1</title><path d="M62,19.72 A30.28,30.28 0 0 0 32.64,42.91 a17.6,17.6 0 0 0 -5.7,-1.06 a19.14,19.14 0 0 0 0,38.29 H62 a30.2,30.2 0 0 0 0,-60.41 m0,58.69 H26.94 a17.43,17.43 0 0 1 0,-34.86 a16.91,16.91 0 0 1 6,1.26 H33 l.06,0 h.28 l.15,0 l.15,-.06 l.13,-.1 l.11,-.11 A.83,.83 0 0 0 34,44.4 a.8,.8 0 0 0 .05,-.09 s0,0 0,-.06 s0,0 0,-.06 A28.49,28.49 0 1 1 62,78.42  Z " transform="translate(-7.8 -19.72)"></path></svg>