<?xml version="1.0" standalone="yes"?><svg xmlns="http://www.w3.org/2000/svg" data-name="Layer 1" viewBox="0 0 96.09 75.51249999999999" x="0px" y="0px" style="zoom: 1;"><title>Untitled-9</title><path d="M67.84,19.72A30.28,30.28,0,0,0,38.49,42.91a17.6,17.6,0,0,0-5.7-1.06,19.14,19.14,0,0,0,0,38.29H67.84a30.2,30.2,0,0,0,0-60.41Zm0,58.69H32.79a17.43,17.43,0,0,1,0-34.86,16.91,16.91,0,0,1,6,1.26h.07l.06,0h.29l.14,0,.16-.06.13-.1.11-.11a.84.84,0,0,0,.09-.15.81.81,0,0,0,.05-.08s0,0,0-.06,0,0,0-.06A28.49,28.49,0,1,1,67.84,78.42Z" transform="translate(-1.96 -19.72)"></path><path d="M30.16,23.07A26.21,26.21,0,0,1,42.33,26a.86.86,0,1,0,.79-1.52A28.21,28.21,0,0,0,6.77,65.34a.86.86,0,1,0,1.42-1,26.5,26.5,0,0,1,22-41.31Z" transform="translate(-1.96 -19.72)"></path></svg>